<svg width="360" height="212" viewBox="0 0 360 212" fill="none" xmlns="http://www.w3.org/2000/svg">
<path opacity="0.3" fill-rule="evenodd" clip-rule="evenodd" d="M0 170.325L8.30769 155.829C17.5385 141.333 34.1538 112.342 51.6923 108.718C68.3077 106.906 85.8462 126.838 102.462 130.462C120 134.085 137.538 119.59 154.154 112.342C171.692 106.906 188.308 106.906 205.846 115.966C222.462 126.838 240 148.581 257.538 148.581C274.154 148.581 291.692 126.838 308.308 99.6581C325.846 70.6667 342.462 36.2393 351.692 18.1197L360 0V212H351.692C342.462 212 325.846 212 308.308 212C291.692 212 274.154 212 257.538 212C240 212 222.462 212 205.846 212C188.308 212 171.692 212 154.154 212C137.538 212 120 212 102.462 212C85.8462 212 68.3077 212 51.6923 212C34.1538 212 17.5385 212 8.30769 212H0V170.325Z" fill="#0099FF"/>
</svg>
