<svg width="52" height="52" viewBox="0 0 52 52" fill="none" xmlns="http://www.w3.org/2000/svg">
<circle cx="26" cy="26" r="26" fill="#ECE9EC"/>
<circle cx="26" cy="26" r="26" fill="#ECE9EC"/>
<path d="M26 41C34.2842 41 41 34.2842 41 26C41 17.7157 34.2842 11 26 11C17.7157 11 11 17.7157 11 26C11 34.2842 17.7157 41 26 41Z" fill="#1977F3"/>
<path d="M31.8388 30.337L32.5033 26.0001H28.3435V23.1861C28.3435 22.0006 28.9236 20.8426 30.7883 20.8426H32.6805V17.1511C32.6805 17.1511 30.9634 16.8579 29.3223 16.8579C25.8966 16.8579 23.6564 18.9336 23.6564 22.6946V26.0001H19.8469V30.337H23.6564V40.8187C24.42 40.9389 25.2026 41.0001 26 41.0001C26.7973 41.0001 27.5799 40.9368 28.3435 40.8187V30.337H31.8388Z" fill="white"/>
</svg>
