<svg width="52" height="52" viewBox="0 0 52 52" fill="none" xmlns="http://www.w3.org/2000/svg">
<circle cx="26" cy="26" r="26" fill="#ECE9EC"/>
<circle cx="26" cy="26" r="26" fill="#ECE9EC"/>
<g clip-path="url(#clip0_126_849)">
<path d="M40.9841 26.2807C40.9841 25.0516 40.8821 24.1547 40.6612 23.2246H26.2988V28.7721H34.7292C34.5593 30.1507 33.6414 32.2269 31.6018 33.622L31.5732 33.8077L36.1143 37.2455L36.4289 37.2762C39.3184 34.6685 40.9841 30.8317 40.9841 26.2807Z" fill="#4285F4"/>
<path d="M26.2988 40.897C30.429 40.897 33.8963 39.5682 36.429 37.2762L31.6018 33.622C30.3101 34.5023 28.5764 35.1169 26.2988 35.1169C22.2536 35.1169 18.8202 32.5093 17.5963 28.905L17.4169 28.9199L12.695 32.491L12.6332 32.6587C15.1488 37.5418 20.3158 40.897 26.2988 40.897Z" fill="#34A853"/>
<path d="M17.5963 28.905C17.2733 27.9749 17.0864 26.9782 17.0864 25.9485C17.0864 24.9187 17.2733 23.9221 17.5793 22.992L17.5707 22.7939L12.7896 19.1655L12.6332 19.2382C11.5964 21.2646 11.0015 23.5401 11.0015 25.9485C11.0015 28.3569 11.5964 30.6323 12.6332 32.6587L17.5963 28.905Z" fill="#FBBC05"/>
<path d="M26.2988 16.78C29.1713 16.78 31.1089 17.9925 32.2137 19.0058L36.5309 14.8866C33.8795 12.4782 30.429 11 26.2988 11C20.3159 11 15.1488 14.3551 12.6332 19.2382L17.5793 22.992C18.8202 19.3877 22.2536 16.78 26.2988 16.78Z" fill="#EB4335"/>
</g>
<defs>
<clipPath id="clip0_126_849">
<rect width="30" height="30" fill="white" transform="translate(11 11)"/>
</clipPath>
</defs>
</svg>
