<svg width="24" height="24" viewBox="0 0 24 24" fill="none" xmlns="http://www.w3.org/2000/svg">
<path d="M5.12817 8.15385C5.12817 10.4103 5.12817 13.5897 5.12817 15.1282C5.23074 16.4615 5.3333 18.2051 5.43587 19.4359C5.53843 20.8718 6.7692 22 8.2051 22H15.7948C17.2307 22 18.4615 20.8718 18.5641 19.4359C18.6666 18.2051 18.7692 16.4615 18.8718 15.1282C18.9743 13.5897 18.8718 10.4103 18.8718 8.15385H5.12817Z" fill="#0B6EFE"/>
<path d="M19.1795 5.07692H16.6154L15.7949 3.53846C15.2821 2.61538 14.359 2 13.3333 2H10.8718C9.84615 2 8.82051 2.61538 8.41026 3.53846L7.38462 5.07692H4.82051C4.41026 5.07692 4 5.48718 4 5.89744C4 6.30769 4.41026 6.71795 4.82051 6.71795H19.1795C19.5897 6.71795 20 6.41026 20 5.89744C20 5.38462 19.5897 5.07692 19.1795 5.07692ZM9.12821 5.07692L9.64103 4.25641C9.84615 3.84615 10.2564 3.53846 10.7692 3.53846H13.2308C13.7436 3.53846 14.1538 3.74359 14.359 4.25641L14.8718 5.07692H9.12821Z" fill="#0B6EFE"/>
</svg>
